<mxfile host="app.diagrams.net" modified="2023-03-08T11:19:43.607Z" agent="5.0 (Windows NT 10.0; Win64; x64) AppleWebKit/537.36 (KHTML, like Gecko) Chrome/110.0.0.0 Safari/537.36" etag="u0Vr993uCDipV_W_Dz1_" version="21.0.2" type="github">
  <diagram name="Strona-1" id="mVCQs24VYeE2_2-3TrxD">
    <mxGraphModel dx="1434" dy="796" grid="1" gridSize="10" guides="1" tooltips="1" connect="1" arrows="1" fold="1" page="1" pageScale="1" pageWidth="827" pageHeight="1169" math="0" shadow="0">
      <root>
        <mxCell id="0" />
        <mxCell id="1" parent="0" />
        <mxCell id="jVx4LizkGMfxXbeVslZR-3" style="edgeStyle=orthogonalEdgeStyle;rounded=0;orthogonalLoop=1;jettySize=auto;html=1;exitX=0.5;exitY=1;exitDx=0;exitDy=0;entryX=0.5;entryY=0;entryDx=0;entryDy=0;" edge="1" parent="1" source="jVx4LizkGMfxXbeVslZR-1" target="jVx4LizkGMfxXbeVslZR-9">
          <mxGeometry relative="1" as="geometry" />
        </mxCell>
        <mxCell id="jVx4LizkGMfxXbeVslZR-1" value="Start" style="ellipse;whiteSpace=wrap;html=1;" vertex="1" parent="1">
          <mxGeometry x="354" y="30" width="120" height="80" as="geometry" />
        </mxCell>
        <mxCell id="jVx4LizkGMfxXbeVslZR-5" style="edgeStyle=orthogonalEdgeStyle;rounded=0;orthogonalLoop=1;jettySize=auto;html=1;exitX=0.5;exitY=1;exitDx=0;exitDy=0;entryX=0.5;entryY=0;entryDx=0;entryDy=0;" edge="1" parent="1" source="jVx4LizkGMfxXbeVslZR-2" target="jVx4LizkGMfxXbeVslZR-4">
          <mxGeometry relative="1" as="geometry" />
        </mxCell>
        <mxCell id="jVx4LizkGMfxXbeVslZR-2" value="&amp;nbsp;pobierz a" style="rounded=0;whiteSpace=wrap;html=1;" vertex="1" parent="1">
          <mxGeometry x="354" y="240" width="120" height="60" as="geometry" />
        </mxCell>
        <mxCell id="jVx4LizkGMfxXbeVslZR-6" style="edgeStyle=orthogonalEdgeStyle;rounded=0;orthogonalLoop=1;jettySize=auto;html=1;exitX=0;exitY=0.5;exitDx=0;exitDy=0;" edge="1" parent="1" source="jVx4LizkGMfxXbeVslZR-4">
          <mxGeometry relative="1" as="geometry">
            <mxPoint x="270" y="360" as="targetPoint" />
          </mxGeometry>
        </mxCell>
        <mxCell id="jVx4LizkGMfxXbeVslZR-13" style="edgeStyle=orthogonalEdgeStyle;rounded=0;orthogonalLoop=1;jettySize=auto;html=1;exitX=1;exitY=0.5;exitDx=0;exitDy=0;" edge="1" parent="1" source="jVx4LizkGMfxXbeVslZR-4">
          <mxGeometry relative="1" as="geometry">
            <mxPoint x="530" y="360" as="targetPoint" />
          </mxGeometry>
        </mxCell>
        <mxCell id="jVx4LizkGMfxXbeVslZR-4" value="a = 0" style="rhombus;whiteSpace=wrap;html=1;" vertex="1" parent="1">
          <mxGeometry x="349" y="320" width="130" height="80" as="geometry" />
        </mxCell>
        <mxCell id="jVx4LizkGMfxXbeVslZR-7" value="tak" style="text;html=1;align=center;verticalAlign=middle;resizable=0;points=[];autosize=1;strokeColor=none;fillColor=none;" vertex="1" parent="1">
          <mxGeometry x="300" y="330" width="40" height="30" as="geometry" />
        </mxCell>
        <mxCell id="jVx4LizkGMfxXbeVslZR-12" style="edgeStyle=orthogonalEdgeStyle;rounded=0;orthogonalLoop=1;jettySize=auto;html=1;exitX=0.5;exitY=1;exitDx=0;exitDy=0;entryX=0.5;entryY=0;entryDx=0;entryDy=0;" edge="1" parent="1" source="jVx4LizkGMfxXbeVslZR-8" target="jVx4LizkGMfxXbeVslZR-11">
          <mxGeometry relative="1" as="geometry" />
        </mxCell>
        <mxCell id="jVx4LizkGMfxXbeVslZR-8" value="WyÅ›wietl suma i &quot;Podales liczbe zero&quot;" style="rounded=0;whiteSpace=wrap;html=1;" vertex="1" parent="1">
          <mxGeometry x="150" y="330" width="120" height="60" as="geometry" />
        </mxCell>
        <mxCell id="jVx4LizkGMfxXbeVslZR-10" style="edgeStyle=orthogonalEdgeStyle;rounded=0;orthogonalLoop=1;jettySize=auto;html=1;exitX=0.5;exitY=1;exitDx=0;exitDy=0;entryX=0.5;entryY=0;entryDx=0;entryDy=0;" edge="1" parent="1" source="jVx4LizkGMfxXbeVslZR-9" target="jVx4LizkGMfxXbeVslZR-2">
          <mxGeometry relative="1" as="geometry" />
        </mxCell>
        <mxCell id="jVx4LizkGMfxXbeVslZR-9" value="suma =0" style="rounded=0;whiteSpace=wrap;html=1;" vertex="1" parent="1">
          <mxGeometry x="354" y="140" width="120" height="60" as="geometry" />
        </mxCell>
        <mxCell id="jVx4LizkGMfxXbeVslZR-11" value="STOP" style="ellipse;whiteSpace=wrap;html=1;" vertex="1" parent="1">
          <mxGeometry x="349" y="490" width="120" height="80" as="geometry" />
        </mxCell>
        <mxCell id="jVx4LizkGMfxXbeVslZR-14" value="&lt;blockquote style=&quot;margin: 0 0 0 40px; border: none; padding: 0px;&quot;&gt;NIE&lt;/blockquote&gt;" style="text;html=1;align=center;verticalAlign=middle;resizable=0;points=[];autosize=1;strokeColor=none;fillColor=none;" vertex="1" parent="1">
          <mxGeometry x="440" y="330" width="80" height="30" as="geometry" />
        </mxCell>
        <mxCell id="jVx4LizkGMfxXbeVslZR-16" style="edgeStyle=orthogonalEdgeStyle;rounded=0;orthogonalLoop=1;jettySize=auto;html=1;exitX=0.5;exitY=0;exitDx=0;exitDy=0;entryX=0.5;entryY=0;entryDx=0;entryDy=0;" edge="1" parent="1" source="jVx4LizkGMfxXbeVslZR-15" target="jVx4LizkGMfxXbeVslZR-2">
          <mxGeometry relative="1" as="geometry" />
        </mxCell>
        <mxCell id="jVx4LizkGMfxXbeVslZR-15" value="suma + a" style="rounded=0;whiteSpace=wrap;html=1;" vertex="1" parent="1">
          <mxGeometry x="530" y="330" width="120" height="60" as="geometry" />
        </mxCell>
      </root>
    </mxGraphModel>
  </diagram>
</mxfile>
